<mxfile host="app.diagrams.net" modified="2021-08-30T13:50:41.411Z" agent="5.0 (Windows NT 10.0; Win64; x64) AppleWebKit/537.36 (KHTML, like Gecko) Chrome/91.0.4472.164 YaBrowser/21.6.4.786 Yowser/2.5 Safari/537.36" etag="a3V-4LcbEqJKQI5uW1M6" version="15.0.3" type="github">
  <diagram id="iOo7oZZCsuvWeqchC3Bm" name="Page-1">
    <mxGraphModel dx="1422" dy="789" grid="1" gridSize="10" guides="1" tooltips="1" connect="1" arrows="1" fold="1" page="1" pageScale="1" pageWidth="827" pageHeight="1169" math="0" shadow="0">
      <root>
        <mxCell id="0" />
        <mxCell id="1" parent="0" />
        <mxCell id="L-6tdVrhbzLVHKV9nh7F-5" value="Ввод &lt;br&gt;множителя 1" style="shape=parallelogram;perimeter=parallelogramPerimeter;whiteSpace=wrap;html=1;fixedSize=1;" vertex="1" parent="1">
          <mxGeometry x="360" y="150" width="120" height="60" as="geometry" />
        </mxCell>
        <mxCell id="L-6tdVrhbzLVHKV9nh7F-6" value="Ввод&lt;br&gt;множителя 2" style="shape=parallelogram;perimeter=parallelogramPerimeter;whiteSpace=wrap;html=1;fixedSize=1;" vertex="1" parent="1">
          <mxGeometry x="360" y="260" width="120" height="60" as="geometry" />
        </mxCell>
        <mxCell id="L-6tdVrhbzLVHKV9nh7F-7" value="Запуск программы" style="ellipse;whiteSpace=wrap;html=1;" vertex="1" parent="1">
          <mxGeometry x="360" y="20" width="120" height="80" as="geometry" />
        </mxCell>
        <mxCell id="L-6tdVrhbzLVHKV9nh7F-8" value="Умножение" style="rounded=1;whiteSpace=wrap;html=1;" vertex="1" parent="1">
          <mxGeometry x="360" y="370" width="120" height="60" as="geometry" />
        </mxCell>
        <mxCell id="L-6tdVrhbzLVHKV9nh7F-9" value="Вывод результата&lt;br&gt;умножения" style="shape=document;whiteSpace=wrap;html=1;boundedLbl=1;" vertex="1" parent="1">
          <mxGeometry x="360" y="480" width="120" height="80" as="geometry" />
        </mxCell>
        <mxCell id="L-6tdVrhbzLVHKV9nh7F-10" value="Выход из программы" style="ellipse;whiteSpace=wrap;html=1;" vertex="1" parent="1">
          <mxGeometry x="360" y="610" width="120" height="80" as="geometry" />
        </mxCell>
        <mxCell id="L-6tdVrhbzLVHKV9nh7F-11" value="" style="html=1;shadow=0;dashed=0;align=center;verticalAlign=middle;shape=mxgraph.arrows2.arrow;dy=0.6;dx=40;direction=south;notch=0;" vertex="1" parent="1">
          <mxGeometry x="405" y="100" width="30" height="50" as="geometry" />
        </mxCell>
        <mxCell id="L-6tdVrhbzLVHKV9nh7F-12" value="" style="html=1;shadow=0;dashed=0;align=center;verticalAlign=middle;shape=mxgraph.arrows2.arrow;dy=0.6;dx=40;direction=south;notch=0;" vertex="1" parent="1">
          <mxGeometry x="405" y="210" width="30" height="50" as="geometry" />
        </mxCell>
        <mxCell id="L-6tdVrhbzLVHKV9nh7F-13" value="" style="html=1;shadow=0;dashed=0;align=center;verticalAlign=middle;shape=mxgraph.arrows2.arrow;dy=0.6;dx=40;direction=south;notch=0;" vertex="1" parent="1">
          <mxGeometry x="405" y="320" width="30" height="50" as="geometry" />
        </mxCell>
        <mxCell id="L-6tdVrhbzLVHKV9nh7F-14" value="" style="html=1;shadow=0;dashed=0;align=center;verticalAlign=middle;shape=mxgraph.arrows2.arrow;dy=0.6;dx=40;direction=south;notch=0;" vertex="1" parent="1">
          <mxGeometry x="405" y="430" width="30" height="50" as="geometry" />
        </mxCell>
        <mxCell id="L-6tdVrhbzLVHKV9nh7F-15" value="" style="html=1;shadow=0;dashed=0;align=center;verticalAlign=middle;shape=mxgraph.arrows2.arrow;dy=0.6;dx=40;direction=south;notch=0;" vertex="1" parent="1">
          <mxGeometry x="405" y="560" width="30" height="50" as="geometry" />
        </mxCell>
      </root>
    </mxGraphModel>
  </diagram>
</mxfile>
